<?xml version="1.0" encoding="UTF-8" standalone="no"?>
<svg
   xmlns:dc="http://purl.org/dc/elements/1.1/"
   xmlns:cc="http://creativecommons.org/ns#"
   xmlns:rdf="http://www.w3.org/1999/02/22-rdf-syntax-ns#"
   xmlns:svg="http://www.w3.org/2000/svg"
   xmlns="http://www.w3.org/2000/svg"
   xmlns:sodipodi="http://sodipodi.sourceforge.net/DTD/sodipodi-0.dtd"
   xmlns:inkscape="http://www.inkscape.org/namespaces/inkscape"
   enable-background="new 0 0 295.775 371.809"
   viewBox="0 0 774.79529 214.46815"
   version="1.1"
   id="svg106"
   sodipodi:docname="logo.svg"
   width="774.79529"
   height="214.46814"
   inkscape:version="0.92.2 2405546, 2018-03-11"
   inkscape:export-filename="/tmp/logo.png"
   inkscape:export-xdpi="96"
   inkscape:export-ydpi="96">
  <metadata
     id="metadata112">
    <rdf:RDF>
      <cc:Work
         rdf:about="">
        <dc:format>image/svg+xml</dc:format>
        <dc:type
           rdf:resource="http://purl.org/dc/dcmitype/StillImage" />
        <dc:title></dc:title>
      </cc:Work>
    </rdf:RDF>
  </metadata>
  <defs
     id="defs110" />
  <sodipodi:namedview
     pagecolor="#ffffff"
     bordercolor="#666666"
     borderopacity="1"
     objecttolerance="10"
     gridtolerance="10"
     guidetolerance="10"
     inkscape:pageopacity="0"
     inkscape:pageshadow="2"
     inkscape:window-width="1916"
     inkscape:window-height="1044"
     id="namedview108"
     showgrid="false"
     inkscape:zoom="0.5894754"
     inkscape:cx="434.88306"
     inkscape:cy="98.535972"
     inkscape:window-x="1600"
     inkscape:window-y="16"
     inkscape:window-maximized="0"
     inkscape:current-layer="svg106"
     fit-margin-top="0"
     fit-margin-left="0"
     fit-margin-right="0"
     fit-margin-bottom="0" />
  <text
     xml:space="preserve"
     style="font-style:normal;font-variant:normal;font-weight:normal;font-stretch:normal;font-size:231.70489502px;line-height:125%;font-family:'Serto Jerusalem Outline';-inkscape-font-specification:'Serto Jerusalem Outline';letter-spacing:0px;word-spacing:0px;fill:#f71919;fill-opacity:1;stroke:none;stroke-width:1.33675909px;stroke-linecap:butt;stroke-linejoin:miter;stroke-opacity:1"
     x="168.0407"
     y="187.34264"
     id="text983"><tspan
       sodipodi:role="line"
       id="tspan981"
       x="168.0407"
       y="187.34264"
       style="font-style:normal;font-variant:normal;font-weight:normal;font-stretch:normal;font-family:'Serto Jerusalem Outline';-inkscape-font-specification:'Serto Jerusalem Outline';fill:#f71919;fill-opacity:1;stroke-width:1.33675909px">SLICE</tspan></text>
  <g
     id="g971"
     transform="matrix(0.56360728,0.07417297,-0.07417297,0.56360728,12.242107,-9.1864259)">
    <path
       style="fill:#f7f619;fill-rule:evenodd"
       inkscape:connector-curvature="0"
       id="path2"
       d="M 122.4,0.19100952 98.676,5.8790095 77.58,12.79101 l -18.612,8.1 -13.5,7.632 -11.88,8.496 -10.008,9.18 -6.3,8.388 -5.724,11.52 -3.888,12.313 -2.988,15.407 -4.392,38.88 -0.288,16.164 1.368,24.3 2.7,22.788 3.708,21.312 4.392,16.309 6.12,16.092 8.712,16.595 9.9,13.932 18,19.801 19.368,18.899 15.408,11.7 39.492,25.813 14.22,7.632 9.901,4.067 10.08,2.7 10.188,1.188 h 10.332 l 10.512,-0.756 13.68,-2.412 16.92,-4.5 20.377,-7.92 12.023,-5.904 9.469,-8.784 9.287,-11.592 7.523,-13.032 5.076,-12.42 3.744,-13.5 2.268,-14.976 1.008,-13.824 -0.287,-20.232 -1.801,-20.88 -3.42,-20.376 -5.58,-20.664 -8.818,-24.48 -12.89,-29.196 -21.924,-43.74 -9.18,-14.688 -8.389,-10.224 -10.801,-10.08 -18,-13.176 -20.988,-12.24 -27.322,-12.9240005 z" />
    <path
       style="fill:#e8e800;fill-rule:evenodd"
       inkscape:connector-curvature="0"
       id="path4"
       d="m 161.279,368.11101 -17.711,-7.668 -25.812,-13.031 -26.28,-16.093 -16.776,-12.996 -13.5,-13.212 -19.512,-22.788 -13.932,-19.044 -6.3,-11.195 -4.068,-11.593 -1.62,-9.432 0.288,-3.6 0.9,-0.9 2.412,2.232 11.988,19.8 22.212,38.52 3.6,4.356 0.612,-0.288 0.396,-4.968 0.9,-0.433 4.68,3.42 19.332,18.181 5.292,3.312 6.876,2.232 7.2,1.908 4.212,2.699 3.708,5.112 5.904,12.601 3.6,4.787 6.3,4.681 14.688,6.588 18.288,7.488 5.111,3.924 2.232,3.708 -0.145,1.512 -1.475,0.792 z" />
    <path
       style="fill:#ffffc7;fill-rule:evenodd"
       inkscape:connector-curvature="0"
       id="path6"
       d="m 31.968,216.47901 -2.88,-16.92 -2.52,-31.212 -0.792,-30.816 0.792,-25.704 1.908,-19.008 3.024,-16.92 4.788,-16.2 5.868,-13.068 6.732,-9.612 7.668,-7.488 11.232,-7.452 13.68,-6.3 12.6,-4.068 11.988,-2.2320005 10.62,-0.468 10.404,1.0800005 12.276,3.42 19.8,8.676 21.6,11.844 13.932,9.612 11.088,9.468 9.9,11.088 12.492,17.244 12.709,21.708 16.092,31.68 13.5,32.04 8.1,24.768 4.32,18.72 2.268,15.588 0.72,17.244 -0.289,14.4 -2.52,29.088 -2.881,18.432 -3.311,11.7 -4.609,10.512 -5.688,7.597 -8.279,7.992 -11.125,7.487 -12.096,5.725 -10.801,3.384 -13.104,2.88 -10.188,0.936 -10.619,-0.323 -10.98,-1.98 -11.232,-3.888 -11.988,-6.3 -21.167,-14.51 -48.132,-38.52 -18.468,-16.811 -12.6,-13.788 -11.844,-16.921 -5.976,-12.6 -4.212,-13.392 z" />
    <path
       style="fill:#f7f619;fill-rule:evenodd"
       inkscape:connector-curvature="0"
       id="path8"
       d="m 140.26,171.08101 -48.78,-38.844 -33.588,-28.62 -6.012,-6.912 -4.5,-9.468 -2.196,-8.532 -0.324,-8.676 1.332,-6.3 2.988,-5.832 7.524,-9.576 10.368,-9.936 7.02,-4.788 6.588,-2.556 h 3.6 l 3.204,1.188 4.896,5.292 6.3,12.276 9.18,24.732 16.524,46.908 7.92,28.044 z" />
    <path
       style="fill:#f7f619;fill-rule:evenodd"
       inkscape:connector-curvature="0"
       id="path10"
       d="m 133.488,130.90701 -6.732,-25.488 -7.38,-22.5 -16.02,-35.82 -2.88,-9.18 -0.288,-4.608 0.612,-2.988 2.556,-4.104 5.832,-3.816 7.2,-2.304 7.812,-0.576 5.4,0.864 5.4,2.412 7.2,5.832 6.48,8.1 0.72,1.08 -1.944,-0.288 3.421,0.108 7.523,-0.72 3.779,0.9 2.377,2.232 3.131,7.056 0.9,6.912 v 10.8 l -1.908,23.22 -5.4,40.932 -5.902,36.72 -3.277,-1.512 -2.699,0.288 -3.024,1.98 z" />
    <path
       style="fill:#f7f619;fill-rule:evenodd"
       inkscape:connector-curvature="0"
       id="path12"
       d="m 165.275,163.45101 0.9,-10.512 7.705,-37.62 5.076,-23.58 3.924,-21.708 2.52,-7.524 1.799,-1.908 1.98,-0.756 3.277,1.476 6.443,6.588 11.557,14.004 11.123,12.852 5.688,8.856 3.602,10.332 1.188,7.668 -0.289,5.688 -1.979,5.724 -4.033,5.688 -8.855,7.164 -15.732,9.756 -20.879,10.512 -11.988,4.932 -1.621,-0.432 -1.223,-3.024 z" />
    <path
       style="fill:#f7f619;fill-rule:evenodd"
       inkscape:connector-curvature="0"
       id="path14"
       d="m 172.8,180.08101 3.6,-2.52 21.168,-7.524 35.1,-19.368 7.633,-2.52 h 2.375 l 1.98,1.62 12.023,23.58 6.697,16.488 4.211,14.939 0.611,4.681 -0.322,3.132 -1.297,2.268 -1.98,1.008 h -3.924 l -10.619,-2.808 -21.168,-7.2 -41.113,-11.231 -9.898,-4.068 -4.609,-3.601 -1.691,-2.52 v -2.268 z" />
    <path
       style="fill:#f7f619;fill-rule:evenodd"
       inkscape:connector-curvature="0"
       id="path16"
       d="m 171.289,193.76301 2.879,0.396 14.508,6.119 24.48,11.269 14.111,4.032 22.213,4.5 7.309,2.592 5.58,3.996 3.6,5.399 3.6,12.925 1.008,9.611 -0.287,9.72 -2.412,13.969 -2.377,5.508 -3.023,2.124 h -1.801 l -5.076,-1.944 -10.512,-6.912 -15.119,-13.355 -12.169,-14.221 -12.313,-14.832 -13.213,-11.699 -9.107,-8.28 -10.98,-14.076 -2.412,-5.04 0.324,-1.512 z" />
    <path
       style="fill:#f7f619;fill-rule:evenodd"
       inkscape:connector-curvature="0"
       id="path18"
       d="m 128.988,174.82701 -8.1,-7.488 -43.812,-32.976 -27.288,-24.12 -6.588,-3.492 h -1.944 l -2.088,1.188 -2.088,4.212 -1.08,6.876 -0.144,27.936 1.224,8.784 2.088,6.012 3.312,4.5 5.796,3.492 8.604,2.412 20.988,3.6 27.288,6.408 13.932,1.8 7.992,-0.9 2.988,-1.188 1.188,-1.656 -0.288,-2.268 z" />
    <path
       style="fill:#f7f619;fill-rule:evenodd"
       inkscape:connector-curvature="0"
       id="path20"
       d="m 141.768,198.94701 -2.52,-0.396 -2.448,-0.468 -2.52,-0.433 -2.52,-0.432 -2.592,-0.36 -2.628,-0.432 -2.592,-0.288 -2.7,-0.36 -2.7,-0.288 -2.7,-0.287 -2.772,-0.324 -2.808,-0.252 -2.88,-0.288 -2.88,-0.18 -2.88,-0.253 -2.952,-0.144 -3.096,-0.252 -3.204,-0.36 -3.348,-0.468 -3.42,-0.576 -3.492,-0.504 -3.528,-0.576 -3.492,-0.504 -3.528,-0.432 -3.492,-0.288 -3.42,-0.144 H 61.38 l -3.204,0.252 -3.06,0.468 -2.88,0.792 -2.7,1.151 -2.448,1.44 -2.088,1.731 -1.584,1.907 -1.08,1.98 -0.72,2.16 -0.288,2.231 v 2.269 l 0.288,2.34 0.504,2.412 0.648,2.412 0.792,2.447 0.9,2.376 0.936,2.412 0.9,2.34 0.864,2.232 0.756,2.232 0.684,2.016 0.54,2.052 0.576,1.836 0.612,1.8 0.72,1.765 0.72,1.728 0.72,1.62 0.828,1.62 0.9,1.62 0.972,1.692 1.008,1.619 1.152,1.729 1.188,1.728 1.332,1.872 1.44,1.944 1.512,2.016 1.656,2.088 1.872,2.412 2.16,2.628 2.268,2.845 2.52,2.916 2.592,3.132 2.7,3.132 2.808,3.168 2.844,3.168 2.736,3.096 2.844,2.916 2.7,2.772 2.556,2.52 2.52,2.269 2.304,1.979 2.16,1.62 1.908,1.152 1.62,0.828 1.548,0.54 1.404,0.359 1.188,0.072 1.152,-0.108 1.008,-0.323 0.972,-0.54 0.9,-0.721 0.828,-0.899 0.828,-1.08 0.792,-1.188 0.792,-1.367 0.828,-1.584 0.828,-1.656 0.9,-1.8 1.044,-1.944 1.008,-2.088 1.008,-2.448 1.044,-2.736 1.08,-2.916 1.008,-3.132 1.008,-3.348 1.044,-3.42 1.008,-3.492 1.008,-3.6 0.972,-3.601 0.9,-3.527 0.9,-3.564 0.9,-3.384 0.792,-3.313 0.756,-3.132 0.72,-2.916 0.612,-2.771 0.648,-2.7 0.54,-2.7 0.54,-2.628 0.54,-2.592 0.432,-2.521 0.468,-2.447 0.36,-2.412 0.36,-2.412 0.324,-2.34 0.288,-2.269 0.252,-2.304 0.18,-2.196 0.18,-2.16 0.18,-2.16 z" />
    <path
       style="fill:#f7f619;fill-rule:evenodd"
       inkscape:connector-curvature="0"
       id="path22"
       d="m 147.17,228.47101 -17.712,71.532 -1.188,9 0.288,7.02 1.512,4.5 5.4,5.4 12.312,8.892 13.788,7.632 11.232,4.177 8.568,1.224 8.711,-0.145 7.596,-1.188 5.4,-2.124 3.203,-3.276 v -2.699 l -4.5,-13.681 -15.623,-34.632 -12.779,-28.8 -5.797,-18.54 -7.381,-30.6 -2.52,-5.4 -1.691,-1.188 -1.801,1.188 -4.031,7.523 z" />
    <path
       style="fill:#f7f619;fill-rule:evenodd"
       inkscape:connector-curvature="0"
       id="path24"
       d="m 169.775,217.99101 6.912,25.488 10.512,29.232 11.701,28.476 7.955,15.624 7.92,11.088 6.193,5.544 4.211,1.656 3.709,0.145 5.688,-3.024 8.279,-8.208 7.021,-9.72 3.492,-6.912 0.611,-3.889 -1.404,-3.491 -15.408,-18.288 -27.9,-29.628 -4.211,-6.013 -2.557,-6.3 -9.611,-10.691 -19.908,-19.62 -5.725,-6.769 -0.756,0.288 0.18,3.024 z" />
    <path
       style="fill:#ffffc7;fill-rule:evenodd"
       inkscape:connector-curvature="0"
       id="path26"
       d="m 188.676,251.29201 -0.287,0.288 2.268,8.531 6.732,16.813 8.387,14.868 9.182,12.996 1.043,0.936 -0.145,-2.52 -5.975,-17.28 -5.725,-11.844 -11.088,-17.677 z" />
    <path
       style="fill:#ffffc7;fill-rule:evenodd"
       inkscape:connector-curvature="0"
       id="path28"
       d="m 212.977,269.39901 3.779,3.601 12.924,16.668 5.977,9.323 0.324,2.521 -1.801,2.088 -2.879,0.324 -3.6,-1.512 -3.313,-4.933 -7.813,-16.668 -3.706,-10.62 z" />
    <path
       style="fill:#ffffc7;fill-rule:evenodd"
       inkscape:connector-curvature="0"
       id="path30"
       d="m 198.576,217.27101 h -0.107 l 11.807,9.288 14.904,17.82 -2.303,-5.977 -5.689,-9.323 -5.688,-4.933 -12.131,-6.588 z" />
    <path
       style="fill:#ffffc7;fill-rule:evenodd"
       inkscape:connector-curvature="0"
       id="path32"
       d="m 220.68,220.97901 20.52,8.568 10.98,5.399 -0.324,0.324 h -2.879 l -9.396,-2.268 -10.801,-5.832 -8.1,-5.688 -0.324,-0.611 z" />
    <path
       style="fill:#ffffc7;fill-rule:evenodd"
       inkscape:connector-curvature="0"
       id="path34"
       d="m 200.088,174.07101 1.188,-0.612 h 2.701 l 39.6,-12.312 0.793,0.216 -8.713,5.184 -14.688,6.48 -19.693,6.012 -5.688,1.044 -0.719,-0.936 3.42,-3.888 z" />
    <path
       style="fill:#ffffc7;fill-rule:evenodd"
       inkscape:connector-curvature="0"
       id="path36"
       d="m 222.156,192.25201 9.145,1.908 26.568,3.491 1.33,-0.18 -19.619,-5.4 -12.924,-2.411 -3.889,0.611 -1.188,1.188 z" />
    <path
       style="fill:#ffffc7;fill-rule:evenodd"
       inkscape:connector-curvature="0"
       id="path38"
       d="m 178.199,152.93901 5.076,-2.376 16.813,-11.232 22.5,-19.8 2.592,-3.024 h -0.791 l -14.508,8.136 -14.293,9.72 -12.889,12.276 -4.643,6.12 z" />
    <path
       style="fill:#ffffc7;fill-rule:evenodd"
       inkscape:connector-curvature="0"
       id="path40"
       d="m 198.576,115.75101 10.225,-10.188 1.799,-2.844 -2.52,0.72 -9.504,5.58 -1.619,2.088 -0.469,2.521 0.9,2.016 z" />
    <path
       style="fill:#ffffc7;fill-rule:evenodd"
       inkscape:connector-curvature="0"
       id="path42"
       d="m 155.377,62.11101 0.611,14.688 v 22.14 l -1.008,18.504 -0.324,1.296 -1.08,-6.3 -1.297,-22.32 1.297,-18.288 1.691,-9.9 z" />
    <path
       style="fill:#ffffc7;fill-rule:evenodd"
       inkscape:connector-curvature="0"
       id="path44"
       d="m 125.1,40.79901 5.4,25.308 2.988,18.612 -0.612,0.432 -3.888,-7.74 -3.888,-11.7 -1.044,-11.412 0.144,-12.168 0.576,-1.8 z" />
    <path
       style="fill:#ffffc7;fill-rule:evenodd"
       inkscape:connector-curvature="0"
       id="path46"
       d="m 133.488,96.85101 -0.108,0.18 6.3,29.808 5.22,20.7 -3.744,-24.588 -3.168,-14.22 -4.32,-11.7 z" />
    <path
       style="fill:#ffffc7;fill-rule:evenodd"
       inkscape:connector-curvature="0"
       id="path48"
       d="m 100.98,82.52301 6.876,19.116 10.224,33.012 1.476,7.2 v 0.288 l -7.776,-16.776 -8.712,-22.032 -2.7,-10.512 -0.792,-8.568 0.612,-2.52 z" />
    <path
       style="fill:#ffffc7;fill-rule:evenodd"
       inkscape:connector-curvature="0"
       id="path50"
       d="m 65.376,86.23101 12.6,14.796 5.724,5.724 -1.044,-2.988 -6.156,-10.044 -6.624,-5.688 -4.608,-2.412 z" />
    <path
       style="fill:#ffffc7;fill-rule:evenodd"
       inkscape:connector-curvature="0"
       id="path52"
       d="m 69.156,58.18701 5.4,9.324 2.7,3.132 0.72,-0.936 -0.288,-2.664 -5.508,-6.444 -3.024,-2.556 z" />
    <path
       style="fill:#ffffc7;fill-rule:evenodd"
       inkscape:connector-curvature="0"
       id="path54"
       d="m 75.888,54.44301 10.692,15.48 2.52,2.808 v -1.62 l -3.132,-7.38 -8.892,-8.82 -1.296,-0.612 z" />
    <path
       style="fill:#ffffc7;fill-rule:evenodd"
       inkscape:connector-curvature="0"
       id="path56"
       d="m 98.676,160.42701 -23.688,-11.88 -2.988,-0.396 -1.512,1.62 0.468,1.98 3.024,2.808 8.676,3.312 28.332,7.812 h 0.612 z" />
    <path
       style="fill:#ffffc7;fill-rule:evenodd"
       inkscape:connector-curvature="0"
       id="path58"
       d="m 50.976,161.14701 27.612,6.48 7.38,1.044 -8.892,-4.032 -13.176,-4.356 -7.2,-0.612 -5.724,0.468 -0.576,0.72 z" />
    <path
       style="fill:#ffffc7;fill-rule:evenodd"
       inkscape:connector-curvature="0"
       id="path60"
       d="m 56.988,200.60301 10.8,0.145 33.768,2.412 3.6,0.899 v 0.288 l -3.456,1.224 -8.424,1.009 -6.408,-0.288 -22.788,-3.744 -7.2,-1.944 h 0.108 z" />
    <path
       style="fill:#ffffc7;fill-rule:evenodd"
       inkscape:connector-curvature="0"
       id="path62"
       d="m 109.98,210.36101 h -1.404 l -25.2,9.721 -17.82,6.012 -0.9,1.08 h 6.624 l 12.996,-1.8 6.624,-1.98 11.556,-6.912 z" />
    <path
       style="fill:#ffffc7;fill-rule:evenodd"
       inkscape:connector-curvature="0"
       id="path64"
       d="m 129.78,218.74801 -0.612,10.512 -3.888,28.728 -1.98,8.137 -3.6,8.063 -2.844,3.024 H 116.1 l -0.324,-4.32 1.8,-14.904 4.392,-17.64 6.012,-18.756 1.62,-2.988 z" />
    <path
       style="fill:#ffffc7;fill-rule:evenodd"
       inkscape:connector-curvature="0"
       id="path66"
       d="m 149.4,264.17901 -2.7,15.408 -3.42,27.324 0.396,1.188 1.512,-2.088 1.98,-7.021 2.232,-29.88 v -5.111 z" />
    <path
       style="fill:#ffffc7;fill-rule:evenodd"
       inkscape:connector-curvature="0"
       id="path68"
       d="m 157.68,249.77901 0.109,4.824 2.879,17.496 2.701,9.504 4.932,10.188 8.1,12.42 1.08,0.792 -5.293,-15.013 -8.531,-23.004 -5.867,-17.208 -0.109,-0.107 v 0.108 z" />
    <path
       style="fill:#f9f980;fill-rule:evenodd"
       inkscape:connector-curvature="0"
       id="path70"
       d="m 16.2,206.29201 h -2.232 l -5.112,2.88 -0.18,0.72 4.392,1.8 0.9,3.78 0.612,2.412 h 1.62 l 3.276,-2.017 1.08,-1.907 -1.98,-5.076 z" />
    <path
       style="fill:#dbdb00;fill-rule:evenodd"
       inkscape:connector-curvature="0"
       id="path72"
       d="m 18.288,204.77901 h -2.232 l -5.076,2.881 -0.18,0.72 4.176,1.512 0.9,2.376 0.612,3.816 1.368,0.396 3.6,-1.908 1.224,-2.088 -1.98,-5.111 z" />
    <path
       style="fill:#f9f980;fill-rule:evenodd"
       inkscape:connector-curvature="0"
       id="path74"
       d="m 91.188,326.24401 -0.108,0.144 2.988,4.536 5.4,4.896 1.512,0.504 2.988,-2.124 1.62,-3.168 -0.72,-1.619 -6.912,-2.412 -6.3,-1.08 z" />
    <path
       style="fill:#dbdb00;fill-rule:evenodd"
       inkscape:connector-curvature="0"
       id="path76"
       d="m 93.6,325.01901 -0.144,0.18 3.024,4.5 5.508,5.112 1.512,0.108 2.88,-1.908 1.62,-3.6 -1.332,-1.513 -7.488,-2.376 -5.4,-0.792 z" />
    <path
       style="fill:#f9f980;fill-rule:evenodd"
       inkscape:connector-curvature="0"
       id="path78"
       d="m 38.556,271.37901 -0.108,0.18 -0.072,0.108 -0.036,0.216 -0.072,0.144 v 0.217 0.144 l 0.072,0.252 0.036,0.18 0.072,0.181 0.072,0.18 0.108,0.18 0.108,0.181 0.18,0.18 0.144,0.108 0.18,0.144 0.216,0.108 0.18,0.18 0.18,0.072 0.18,0.107 0.252,0.072 0.18,0.036 0.18,0.072 h 0.18 0.252 0.18 0.18 l 0.18,-0.072 0.108,-0.036 0.18,-0.072 0.108,-0.107 0.18,-0.072 0.144,-0.18 0.036,-0.108 0.072,-0.18 0.072,-0.108 v -0.216 -0.145 -0.216 -0.144 l -0.072,-0.216 -0.072,-0.145 -0.108,-0.216 -0.072,-0.144 -0.108,-0.217 -0.18,-0.144 -0.108,-0.216 -0.18,-0.108 -0.18,-0.18 -0.252,-0.108 -0.18,-0.107 -0.18,-0.072 -0.252,-0.145 -0.18,-0.035 -0.18,-0.072 H 39.996 39.78 39.6 39.42 l -0.18,0.072 -0.144,0.035 -0.18,0.145 -0.108,0.072 -0.18,0.107 z" />
    <path
       style="fill:#dbdb00;fill-rule:evenodd"
       inkscape:connector-curvature="0"
       id="path80"
       d="m 38.88,270.80301 -0.144,0.144 -0.036,0.144 -0.072,0.18 -0.072,0.18 v 0.181 0.18 l 0.072,0.18 0.072,0.181 0.036,0.18 0.072,0.18 0.108,0.181 0.144,0.18 0.18,0.18 0.108,0.108 0.18,0.18 0.252,0.108 0.18,0.144 0.18,0.108 0.18,0.072 0.216,0.035 0.18,0.072 h 0.18 l 0.18,0.072 h 0.252 l 0.18,-0.072 h 0.18 l 0.18,-0.072 0.108,-0.035 0.18,-0.108 0.144,-0.072 0.18,-0.144 0.108,-0.145 0.072,-0.144 0.036,-0.108 0.072,-0.18 v -0.18 -0.181 -0.18 -0.18 l -0.072,-0.181 -0.036,-0.18 -0.144,-0.18 -0.036,-0.181 -0.144,-0.18 -0.18,-0.18 -0.108,-0.145 -0.18,-0.144 -0.18,-0.216 -0.252,-0.108 -0.18,-0.036 -0.18,-0.144 -0.216,-0.072 -0.18,-0.034 -0.18,-0.072 h -0.18 -0.252 -0.18 l -0.18,0.072 -0.18,0.036 -0.108,0.072 -0.18,0.144 -0.144,0.108 -0.18,0.107 z" />
    <path
       style="fill:#f9f980;fill-rule:evenodd"
       inkscape:connector-curvature="0"
       id="path82"
       d="m 3.168,123.85101 -0.108,0.18 -0.072,0.18 -0.072,0.108 v 0.18 0.18 0.18 0.18 l 0.072,0.18 0.072,0.18 0.108,0.18 0.072,0.18 0.108,0.18 0.18,0.18 0.108,0.18 0.18,0.144 0.252,0.108 0.18,0.18 0.18,0.108 0.252,0.072 0.18,0.108 0.216,0.072 0.18,0.072 h 0.18 0.252 0.18 0.18 l 0.18,-0.072 0.18,-0.072 0.108,-0.108 0.144,-0.072 0.108,-0.108 0.108,-0.18 0.072,-0.108 0.072,-0.144 0.036,-0.18 0.072,-0.18 v -0.18 -0.18 l -0.072,-0.18 v -0.18 l -0.108,-0.18 -0.072,-0.18 -0.108,-0.18 -0.108,-0.18 -0.18,-0.18 -0.144,-0.108 -0.18,-0.18 -0.18,-0.18 -0.18,-0.144 -0.18,-0.036 -0.216,-0.108 -0.18,-0.072 -0.18,-0.072 -0.18,-0.072 H 4.608 l -0.18,-0.036 -0.18,0.036 h -0.18 l -0.18,0.072 -0.18,0.072 -0.18,0.072 -0.108,0.108 -0.144,0.036 z" />
    <path
       style="fill:#dbdb00;fill-rule:evenodd"
       inkscape:connector-curvature="0"
       id="path84"
       d="m 3.6,123.13101 -0.144,0.18 -0.036,0.108 -0.072,0.18 -0.072,0.18 v 0.18 0.18 l 0.072,0.18 0.072,0.18 0.036,0.18 0.072,0.18 0.108,0.18 0.144,0.18 0.108,0.18 0.108,0.108 0.18,0.216 0.18,0.108 0.18,0.18 0.18,0.072 0.252,0.108 0.18,0.036 0.252,0.072 0.18,0.072 h 0.18 0.216 0.18 0.18 l 0.18,-0.072 0.18,-0.072 0.144,-0.036 0.108,-0.108 0.108,-0.072 0.144,-0.18 0.036,-0.108 0.072,-0.216 0.072,-0.108 0.036,-0.18 v -0.18 -0.18 l -0.036,-0.18 v -0.18 l -0.144,-0.18 -0.036,-0.18 -0.144,-0.18 -0.108,-0.18 -0.18,-0.18 -0.108,-0.18 -0.18,-0.108 -0.18,-0.18 -0.18,-0.144 -0.18,-0.108 -0.252,-0.036 -0.18,-0.144 -0.18,-0.072 -0.18,-0.036 H 4.968 4.716 4.536 4.356 l -0.18,0.036 -0.108,0.072 -0.18,0.144 -0.108,0.036 -0.144,0.108 z" />
    <path
       style="fill:#f9f980;fill-rule:evenodd"
       inkscape:connector-curvature="0"
       id="path86"
       d="m 142.776,355.33201 -0.108,0.18 -0.072,0.18 -0.036,0.108 -0.072,0.18 v 0.181 0.18 l 0.072,0.18 0.036,0.18 0.072,0.181 0.108,0.18 0.072,0.18 0.18,0.181 0.108,0.18 0.18,0.18 0.144,0.145 0.216,0.107 0.144,0.181 0.18,0.107 0.216,0.072 0.18,0.036 0.18,0.072 0.18,0.071 h 0.252 0.18 l 0.18,-0.071 h 0.18 l 0.18,-0.072 0.18,-0.036 0.108,-0.108 0.144,-0.071 0.108,-0.145 0.108,-0.144 0.072,-0.145 0.108,-0.18 0.072,-0.108 v -0.18 l 0.072,-0.18 v -0.181 l -0.072,-0.18 v -0.18 l -0.072,-0.18 -0.108,-0.181 -0.072,-0.18 -0.108,-0.18 -0.108,-0.181 -0.18,-0.18 -0.144,-0.108 -0.18,-0.216 -0.216,-0.107 -0.18,-0.108 -0.252,-0.072 -0.18,-0.071 -0.252,-0.036 -0.18,-0.072 H 144.18 144 l -0.18,0.072 h -0.252 l -0.108,0.036 -0.18,0.071 -0.18,0.145 -0.144,0.036 -0.108,0.107 z" />
    <path
       style="fill:#dbdb00;fill-rule:evenodd"
       inkscape:connector-curvature="0"
       id="path88"
       d="m 143.1,354.61101 -0.144,0.181 -0.036,0.107 -0.072,0.181 -0.072,0.18 v 0.18 0.181 l 0.072,0.18 0.072,0.18 0.036,0.181 0.144,0.18 0.036,0.18 0.18,0.18 0.144,0.181 0.18,0.107 0.108,0.217 0.252,0.104 0.108,0.18 0.18,0.072 0.252,0.108 0.18,0.036 0.18,0.071 0.216,0.072 h 0.18 0.18 0.252 0.18 l 0.18,-0.072 0.18,-0.071 0.18,-0.036 0.108,-0.108 0.144,-0.072 0.18,-0.18 0.036,-0.107 0.072,-0.217 v -0.144 l 0.072,-0.252 v -0.18 l -0.072,-0.181 v -0.18 l -0.072,-0.18 -0.036,-0.181 -0.072,-0.252 -0.108,-0.18 -0.144,-0.18 -0.108,-0.181 -0.18,-0.107 -0.108,-0.181 -0.18,-0.18 -0.252,-0.072 -0.18,-0.107 -0.252,-0.072 -0.18,-0.072 -0.216,-0.036 h -0.18 l -0.18,-0.071 h -0.18 l -0.252,0.071 h -0.18 l -0.18,0.036 -0.108,0.072 -0.18,0.144 -0.144,0.036 -0.18,0.108 z" />
    <path
       style="fill:#f9f980;fill-rule:evenodd"
       inkscape:connector-curvature="0"
       id="path90"
       d="m 11.376,89.36301 -0.18,0.288 -0.108,0.288 -0.072,0.288 -0.036,0.324 v 0.288 0.36 l 0.036,0.324 0.072,0.36 0.108,0.288 0.144,0.288 0.18,0.36 0.216,0.288 0.252,0.324 0.252,0.252 0.288,0.288 0.36,0.18 0.288,0.288 0.36,0.18 0.36,0.18 0.36,0.108 0.36,0.144 0.36,0.108 h 0.36 l 0.36,0.072 0.36,-0.072 h 0.324 l 0.288,-0.108 0.288,-0.144 0.324,-0.108 0.216,-0.18 0.252,-0.18 0.252,-0.288 0.108,-0.252 0.108,-0.216 0.072,-0.324 0.072,-0.288 v -0.324 -0.288 l -0.072,-0.36 -0.072,-0.288 -0.108,-0.36 -0.18,-0.288 -0.18,-0.324 -0.252,-0.288 -0.216,-0.324 -0.324,-0.288 -0.288,-0.288 -0.288,-0.288 -0.36,-0.216 -0.36,-0.216 -0.36,-0.144 -0.36,-0.144 -0.324,-0.072 -0.36,-0.072 -0.36,-0.072 h -0.288 -0.36 l -0.288,0.072 -0.324,0.072 -0.288,0.108 -0.288,0.108 -0.252,0.216 -0.252,0.144 z" />
    <path
       style="fill:#dbdb00;fill-rule:evenodd"
       inkscape:connector-curvature="0"
       id="path92"
       d="m 11.988,88.13901 -0.18,0.288 -0.18,0.324 -0.072,0.288 -0.036,0.324 v 0.288 0.288 l 0.036,0.288 0.072,0.36 0.108,0.324 0.18,0.36 0.18,0.288 0.252,0.324 0.252,0.288 0.216,0.288 0.324,0.252 0.36,0.252 0.288,0.216 0.36,0.18 0.36,0.18 0.36,0.144 0.36,0.036 0.36,0.072 0.36,0.036 h 0.36 0.288 l 0.36,-0.036 0.324,-0.072 0.216,-0.108 0.324,-0.144 0.216,-0.144 0.18,-0.252 0.252,-0.252 0.108,-0.216 0.18,-0.324 0.072,-0.288 0.072,-0.324 v -0.288 -0.288 l -0.072,-0.288 -0.072,-0.36 -0.108,-0.324 -0.18,-0.36 -0.18,-0.288 -0.252,-0.324 -0.216,-0.288 -0.252,-0.288 -0.288,-0.252 -0.324,-0.288 -0.36,-0.18 -0.36,-0.18 -0.36,-0.18 -0.36,-0.144 -0.36,-0.036 -0.36,-0.072 -0.36,-0.036 h -0.36 -0.288 l -0.36,0.036 -0.288,0.072 -0.252,0.108 -0.288,0.144 -0.252,0.144 -0.18,0.252 z" />
    <path
       style="fill:#f9f980;fill-rule:evenodd"
       inkscape:connector-curvature="0"
       id="path94"
       d="m 22.68,237.79201 -0.18,0.288 -0.144,0.323 -0.036,0.288 -0.072,0.288 v 0.288 0.36 l 0.072,0.323 0.036,0.36 0.144,0.288 0.108,0.324 0.18,0.359 0.252,0.288 0.216,0.288 0.252,0.252 0.288,0.288 0.36,0.18 0.324,0.288 0.36,0.217 0.36,0.144 0.36,0.144 0.36,0.108 0.36,0.108 h 0.36 l 0.36,0.071 0.288,-0.071 h 0.36 l 0.288,-0.108 0.324,-0.108 0.288,-0.144 0.252,-0.144 0.216,-0.217 0.252,-0.288 0.108,-0.216 0.144,-0.252 0.036,-0.324 0.072,-0.287 v -0.36 -0.288 l -0.072,-0.36 -0.036,-0.288 -0.144,-0.359 -0.108,-0.324 -0.18,-0.36 -0.252,-0.287 -0.216,-0.324 -0.252,-0.216 -0.288,-0.288 -0.324,-0.252 -0.36,-0.181 -0.36,-0.252 -0.36,-0.18 -0.36,-0.108 -0.36,-0.107 -0.36,-0.072 -0.36,-0.072 h -0.36 -0.36 l -0.288,0.072 -0.288,0.072 -0.324,0.107 -0.288,0.108 -0.252,0.18 -0.216,0.252 z" />
    <path
       style="fill:#dbdb00;fill-rule:evenodd"
       inkscape:connector-curvature="0"
       id="path96"
       d="m 23.256,236.60301 -0.18,0.288 -0.108,0.288 -0.072,0.288 -0.036,0.324 v 0.288 0.323 l 0.036,0.288 0.072,0.36 0.108,0.288 0.144,0.359 0.18,0.288 0.216,0.324 0.252,0.288 0.252,0.324 0.288,0.216 0.36,0.252 0.288,0.252 0.36,0.144 0.36,0.217 0.36,0.107 0.36,0.036 0.36,0.072 0.36,0.072 h 0.36 0.324 l 0.36,-0.072 0.288,-0.072 0.288,-0.108 0.324,-0.107 0.216,-0.18 0.252,-0.252 0.252,-0.217 0.108,-0.252 0.108,-0.323 0.072,-0.288 0.072,-0.288 v -0.288 l -0.072,-0.324 -0.072,-0.288 -0.108,-0.359 -0.108,-0.324 -0.18,-0.36 -0.18,-0.288 -0.18,-0.288 -0.252,-0.288 -0.288,-0.323 -0.324,-0.252 -0.288,-0.288 -0.36,-0.216 -0.36,-0.217 -0.36,-0.144 -0.36,-0.145 -0.36,-0.107 -0.36,-0.072 H 25.74 25.38 25.02 l -0.324,0.072 -0.288,0.107 -0.288,0.145 -0.252,0.107 -0.252,0.181 -0.18,0.216 z" />
    <path
       style="fill:#f9f980;fill-rule:evenodd"
       inkscape:connector-curvature="0"
       id="path98"
       d="m 69.768,305.72301 -0.108,0.144 -0.072,0.217 -0.072,0.144 -0.036,0.216 v 0.145 0.216 0.144 l 0.036,0.217 0.072,0.144 0.072,0.216 0.108,0.145 0.108,0.216 0.144,0.144 0.108,0.145 0.18,0.107 0.18,0.108 0.18,0.216 0.18,0.108 0.252,0.036 0.18,0.144 0.216,0.072 0.18,0.036 h 0.252 0.18 0.18 0.252 l 0.108,-0.036 0.18,-0.072 0.18,-0.144 0.108,-0.036 0.144,-0.108 0.108,-0.216 0.072,-0.108 0.036,-0.107 0.072,-0.181 0.072,-0.18 v -0.18 -0.181 l -0.072,-0.18 -0.072,-0.18 -0.036,-0.18 -0.144,-0.181 -0.036,-0.18 -0.18,-0.18 -0.144,-0.182 -0.18,-0.107 -0.108,-0.217 -0.18,-0.144 -0.18,-0.144 -0.18,-0.072 -0.252,-0.108 -0.18,-0.036 -0.18,-0.071 -0.18,-0.072 H 71.1 l -0.18,-0.072 -0.18,0.072 h -0.18 l -0.18,0.072 -0.18,0.071 -0.144,0.036 -0.108,0.108 -0.108,0.072 z" />
    <path
       style="fill:#dbdb00;fill-rule:evenodd"
       inkscape:connector-curvature="0"
       id="path100"
       d="m 70.056,305.11101 -0.108,0.181 -0.072,0.18 -0.036,0.108 -0.072,0.18 v 0.18 0.181 0.18 l 0.072,0.18 0.036,0.181 0.072,0.18 0.108,0.18 0.144,0.18 0.108,0.181 0.108,0.18 0.18,0.108 0.18,0.144 0.18,0.108 0.18,0.107 0.252,0.072 0.18,0.072 0.252,0.072 H 72 l 0.216,0.035 h 0.18 0.18 l 0.252,-0.035 0.108,-0.072 0.18,-0.072 0.18,-0.072 0.144,-0.107 0.108,-0.036 0.108,-0.216 0.072,-0.108 0.072,-0.18 0.036,-0.108 0.072,-0.18 v -0.18 -0.181 l -0.072,-0.18 -0.036,-0.18 -0.072,-0.183 -0.072,-0.18 -0.108,-0.18 -0.108,-0.181 -0.144,-0.18 -0.108,-0.18 -0.18,-0.145 -0.108,-0.144 -0.252,-0.145 -0.18,-0.107 -0.252,-0.072 -0.18,-0.036 -0.216,-0.072 -0.18,-0.071 h -0.18 -0.252 l -0.18,0.071 h -0.18 l -0.18,0.072 -0.18,0.036 -0.108,0.108 -0.144,0.071 -0.108,0.145 z" />
    <path
       style="fill:#f9f980;fill-rule:evenodd"
       inkscape:connector-curvature="0"
       id="path102"
       d="m 30.78,47.99901 -0.144,0.18 -0.036,0.144 -0.072,0.144 -0.072,0.216 v 0.144 0.216 0.144 l 0.072,0.216 0.072,0.144 0.036,0.216 0.144,0.144 0.108,0.216 0.108,0.144 0.144,0.144 0.18,0.18 0.18,0.108 0.18,0.18 0.18,0.072 0.216,0.108 0.18,0.072 0.252,0.072 0.18,0.036 h 0.252 0.18 0.18 0.216 l 0.144,-0.036 0.18,-0.072 0.18,-0.072 0.108,-0.108 0.108,-0.072 0.144,-0.18 0.036,-0.108 0.072,-0.18 0.072,-0.144 0.036,-0.144 v -0.216 -0.144 l -0.036,-0.216 -0.072,-0.144 -0.072,-0.216 -0.036,-0.144 -0.144,-0.216 -0.108,-0.144 -0.108,-0.216 -0.144,-0.144 -0.18,-0.144 -0.108,-0.18 -0.252,-0.108 -0.18,-0.144 -0.216,-0.036 -0.18,-0.108 -0.252,-0.072 -0.18,-0.072 h -0.18 -0.252 -0.18 -0.18 l -0.18,0.072 -0.18,0.072 -0.108,0.108 -0.108,0.036 -0.144,0.144 z" />
    <path
       style="fill:#dbdb00;fill-rule:evenodd"
       inkscape:connector-curvature="0"
       id="path104"
       d="m 31.068,47.24301 -0.108,0.144 -0.072,0.216 -0.072,0.108 -0.036,0.18 v 0.18 0.18 0.18 l 0.036,0.18 0.072,0.18 0.072,0.18 0.108,0.18 0.108,0.18 0.144,0.18 0.108,0.18 0.18,0.108 0.18,0.108 0.18,0.216 0.18,0.108 0.252,0.036 0.18,0.144 0.216,0.072 0.18,0.036 h 0.252 0.18 0.18 0.252 l 0.108,-0.036 0.18,-0.072 0.18,-0.144 0.108,-0.036 0.144,-0.108 0.108,-0.216 0.072,-0.108 0.036,-0.108 0.072,-0.18 0.072,-0.18 v -0.18 -0.18 l -0.072,-0.18 -0.072,-0.18 -0.036,-0.18 -0.072,-0.18 -0.108,-0.18 -0.144,-0.18 -0.108,-0.18 -0.108,-0.108 -0.18,-0.216 -0.144,-0.144 -0.216,-0.144 -0.18,-0.072 -0.252,-0.108 -0.18,-0.036 -0.252,-0.072 -0.18,-0.072 h -0.18 l -0.216,-0.072 -0.18,0.072 h -0.18 l -0.18,0.072 -0.18,0.072 -0.144,0.036 -0.108,0.108 -0.108,0.072 z" />
  </g>
</svg>
